<svg xmlns="http://www.w3.org/2000/svg" viewBox="0 0 1200 800" role="img" aria-labelledby="title desc">
  <title id="title">Charity and Kwaku portrait illustration</title>
  <desc id="desc">A warm illustrated wedding portrait inspired by Ghanaian traditional attire.</desc>
  <defs>
    <linearGradient id="bg" x1="0" x2="1" y1="0" y2="1">
      <stop offset="0" stop-color="#21150f"/>
      <stop offset=".52" stop-color="#5d2116"/>
      <stop offset="1" stop-color="#204939"/>
    </linearGradient>
    <pattern id="kente" width="96" height="96" patternUnits="userSpaceOnUse">
      <rect width="96" height="96" fill="#d7a94c"/>
      <path d="M0 0h96v18H0zM0 39h96v18H0zM0 78h96v18H0z" fill="#a64623"/>
      <path d="M0 18h18v60H0zM39 18h18v60H39zM78 18h18v60H78z" fill="#204939"/>
      <path d="M18 18h21v21H18zM57 57h21v21H57z" fill="#fff4dc" opacity=".72"/>
    </pattern>
    <filter id="shadow" x="-20%" y="-20%" width="140%" height="140%">
      <feDropShadow dx="0" dy="28" stdDeviation="24" flood-color="#0c0705" flood-opacity=".45"/>
    </filter>
  </defs>
  <rect width="1200" height="800" fill="url(#bg)"/>
  <circle cx="944" cy="136" r="270" fill="#f4d176" opacity=".12"/>
  <circle cx="194" cy="658" r="250" fill="#f0b29b" opacity=".12"/>
  <path d="M0 91h1200v72H0zM0 637h1200v72H0z" fill="url(#kente)" opacity=".9"/>
  <g filter="url(#shadow)">
    <path d="M340 640c18-124 86-208 196-208s184 84 203 208z" fill="#fff4dc"/>
    <path d="M474 405c-62-20-99-70-96-135 4-77 64-133 138-133 78 0 135 60 135 136 0 64-39 113-101 132v63h-76z" fill="#2d1710"/>
    <circle cx="515" cy="294" r="82" fill="#5b3426"/>
    <path d="M415 640c17-102 60-162 120-162 59 0 102 60 119 162z" fill="url(#kente)"/>
  </g>
  <g filter="url(#shadow)">
    <path d="M560 640c18-132 95-226 221-226 122 0 200 94 219 226z" fill="#f4d176"/>
    <path d="M690 385c-52-30-80-80-73-138 9-80 74-135 153-126 78 9 130 77 121 156-7 61-47 106-105 122v68h-96z" fill="#16100d"/>
    <circle cx="756" cy="288" r="85" fill="#5b3426"/>
    <path d="M656 640c18-118 64-186 130-186 67 0 114 68 132 186z" fill="#204939"/>
    <path d="M663 520h246v54H663z" fill="url(#kente)" opacity=".95"/>
  </g>
  <path d="M315 640h690" stroke="#fff4dc" stroke-width="7" stroke-linecap="round" opacity=".54"/>
</svg>
